<svg width="41" height="41" viewBox="0 0 41 41" fill="none" xmlns="http://www.w3.org/2000/svg">
<rect width="41" height="41" rx="14" fill="#41413E"/>
<g clip-path="url(#clip0_390_1901)">
<path d="M20.4993 29.0971C25.0147 29.0971 28.6753 25.4366 28.6753 20.9211C28.6753 16.4057 25.0147 12.7451 20.4993 12.7451C15.9838 12.7451 12.3232 16.4057 12.3232 20.9211C12.3232 25.4366 15.9838 29.0971 20.4993 29.0971Z" stroke="white" stroke-width="1.4" stroke-miterlimit="10"/>
<path d="M22.5342 24.6317C22.8914 24.3008 23.2483 23.9574 23.6027 23.603C28.6895 18.5159 31.4243 13.003 29.7104 11.2891C28.5915 10.1702 25.8531 10.9476 22.671 13.0376" stroke="white" stroke-width="1.4" stroke-miterlimit="10"/>
<path d="M12.6625 23.2598C10.8576 26.1877 10.2394 28.6615 11.2886 29.7108C12.5715 30.9936 15.9832 29.784 19.7516 26.9606" stroke="white" stroke-width="1.4" stroke-miterlimit="10"/>
<path d="M21.219 27.6774C22.1971 27.6774 22.9899 26.8846 22.9899 25.9066C22.9899 24.9286 22.1971 24.1357 21.219 24.1357C20.2411 24.1357 19.4482 24.9286 19.4482 25.9066C19.4482 26.8846 20.2411 27.6774 21.219 27.6774Z" stroke="white" stroke-width="1.4" stroke-miterlimit="10"/>
</g>
<defs>
<clipPath id="clip0_390_1901">
<rect width="21" height="21" fill="white" transform="translate(10 10)"/>
</clipPath>
</defs>
</svg>
